<?xml version="1.0" standalone="no"?>
<!DOCTYPE svg PUBLIC "-//W3C//DTD SVG 1.1//EN" "http://www.w3.org/Graphics/SVG/1.1/DTD/svg11.dtd" >
<svg xmlns="http://www.w3.org/2000/svg">
<metadata>Generated by IcoMoon</metadata>
<defs>
<font id="icomoon" horiz-adv-x="1024">
<font-face units-per-em="1024" ascent="819.8005865102639" descent="-204.19941348973606" />
<missing-glyph horiz-adv-x="1024" />
<glyph unicode="&#x20;" horiz-adv-x="0" d="" />
<glyph unicode="&#xe900;" glyph-name="heart" horiz-adv-x="1179" d="M142.319 291.733l350.136-373.654c54.297-63.853 139.806-63.884 195.033 1.055l362.205 388.671c42.662 48.867 65.466 112.13 65.466 182.902-0.011 154.211-125.027 279.22-279.24 279.22-90.102 0-170.236-42.674-221.295-108.914l-0.483-0.652c-5.722-7.415-14.611-12.145-24.605-12.145-0.327 0-0.653 0.005-0.978 0.015l0.047-0.001c-0.268-0.008-0.583-0.013-0.9-0.013-9.994 0-18.883 4.73-24.551 12.072l-0.053 0.072c-51.541 66.915-131.69 109.607-221.809 109.607-154.22 0-279.24-125.020-279.24-279.24 0-0.007 0-0.014 0-0.022v0.001c0-72.851 28.793-144.243 77.411-195.499 1.055-1.117 1.986-2.265 2.854-3.475zM87.712 259.806c-54.294 61.192-87.518 142.148-87.712 230.86v0.040c0 188.487 152.806 341.293 341.293 341.293 95.066 0 183.709-39.156 247.313-106.111 62.171 65.418 149.823 106.111 246.98 106.111 0.128 0 0.256 0 0.384 0h-0.020c188.487 0 341.293-152.806 341.293-341.293 0-80.793-25.070-154.637-72.199-213.463-1.148-1.924-2.482-3.754-4.096-5.492l-5.181-5.554c-2.699-3.072-5.492-6.112-8.315-9.091-0.621-0.621-1.21-1.241-1.862-1.8l-351.78-377.377c-79.056-93.049-209.554-93.018-287.617-1.148l-355.41 379.177c-1.096 1.156-2.115 2.412-3.034 3.743l-0.068 0.104z" />
<glyph unicode="&#xe965;" glyph-name="undo" d="M512.5 780.95c-141.522 0-269.639-57.376-362.386-150.125l-150.115 150.125v-384.375h384.375l-143.672 143.662c69.564 69.56 165.654 112.588 271.797 112.588 212.275 0 384.375-172.092 384.375-384.375 0-114.808-50.341-217.849-130.145-288.282l84.749-96.094c106.406 93.908 173.521 231.302 173.521 384.375 0 283.046-229.454 512.5-512.5 512.5z" />
<glyph unicode="&#xe966;" glyph-name="redo" d="M0 268.45c0-153.073 67.114-290.468 173.519-384.375l84.749 96.094c-79.804 70.433-130.143 173.473-130.143 288.282 0 212.283 172.098 384.375 384.375 384.375 106.146 0 202.235-43.028 271.795-112.588l-143.67-143.662h384.375v384.375l-150.117-150.125c-92.745 92.749-220.86 150.125-362.384 150.125-283.046 0-512.5-229.454-512.5-512.5z" />
<glyph unicode="&#xe967;" glyph-name="undo2" d="M762.607-179.988c113.837 206.233 133.018 520.815-314.169 510.322v-254.072l-384.375 384.375 384.375 384.375v-248.615c535.485 13.956 595.151-472.676 314.169-776.386z" />
<glyph unicode="&#xe968;" glyph-name="redo2" d="M576.563 596.398v248.615l384.375-384.375-384.375-384.375v254.072c-447.187 10.492-428.006-304.089-314.167-510.322-280.986 303.711-221.316 790.342 314.167 776.386z" />
<glyph unicode="&#xe969;" glyph-name="forward" d="M262.396 845.013c-113.839-206.233-133.020-520.813 314.167-510.322v254.072l384.375-384.375-384.375-384.375v248.615c-535.483-13.956-595.153 472.676-314.167 776.386z" />
<glyph unicode="&#xe96a;" glyph-name="reply" d="M448.438 68.627v-248.615l-384.375 384.375 384.375 384.375v-254.072c447.187-10.49 428.006 304.089 314.169 510.322 280.984-303.711 221.316-790.342-314.169-776.386z" />
<glyph unicode="&#xe97a;" glyph-name="spinner" d="M384.375 716.888c0 70.761 57.364 128.125 128.125 128.125s128.125-57.364 128.125-128.125c0-70.761-57.364-128.125-128.125-128.125s-128.125 57.364-128.125 128.125zM656.171 604.308c0 70.761 57.364 128.125 128.125 128.125s128.125-57.364 128.125-128.125c0-70.761-57.364-128.125-128.125-128.125s-128.125 57.364-128.125 128.125zM832.813 332.512c0 35.381 28.682 64.063 64.063 64.063s64.063-28.682 64.063-64.063c0-35.381-28.682-64.063-64.063-64.063s-64.063 28.682-64.063 64.063zM720.233 60.717c0 35.381 28.682 64.063 64.063 64.063s64.063-28.682 64.063-64.063c0-35.381-28.682-64.063-64.063-64.063s-64.063 28.682-64.063 64.063zM448.44-51.863c0 0 0 0 0 0 0 35.381 28.682 64.063 64.063 64.063s64.063-28.682 64.063-64.063c0 0 0 0 0 0 0-35.381-28.682-64.063-64.063-64.063s-64.063 28.682-64.063 64.063zM176.645 60.717c0 0 0 0 0 0 0 35.381 28.682 64.063 64.063 64.063s64.063-28.682 64.063-64.063c0 0 0 0 0 0 0-35.381-28.682-64.063-64.063-64.063s-64.063 28.682-64.063 64.063zM144.613 604.308c0 0 0 0 0 0 0 53.071 43.023 96.094 96.094 96.094s96.094-43.023 96.094-96.094c0 0 0 0 0 0 0-53.071-43.023-96.094-96.094-96.094s-96.094 43.023-96.094 96.094zM56.055 332.512c0 39.804 32.267 72.070 72.070 72.070s72.070-32.267 72.070-72.070c0-39.804-32.267-72.070-72.070-72.070s-72.070 32.267-72.070 72.070z" />
<glyph unicode="&#xe97c;" glyph-name="spinner3" d="M512.5 541.62c-32.996 0-59.744 26.75-59.744 59.744v179.235c0 32.996 26.748 59.744 59.744 59.744 32.994 0 59.746-26.748 59.746-59.744v-179.235c0-32.996-26.752-59.744-59.746-59.744zM512.5-152.918c-20.622 0-37.34 16.718-37.34 37.34v179.235c0 20.622 16.718 37.34 37.34 37.34 20.624 0 37.34-16.72 37.34-37.34v-179.235c0-20.622-16.716-37.34-37.34-37.34zM378.125 509.325c-19.359 0-38.183 10.044-48.559 28.015l-89.618 155.222c-15.467 26.79-6.288 61.046 20.502 76.513 26.788 15.465 61.046 6.29 76.513-20.502l89.618-155.224c15.467-26.79 6.288-61.046-20.502-76.513-8.819-5.089-18.45-7.511-27.953-7.511zM736.575-89.156c-11.613 0-22.908 6.028-29.136 16.808l-89.618 155.222c-9.279 16.072-3.774 36.628 12.302 45.909 16.072 9.273 36.626 3.774 45.909-12.304l89.62-155.22c9.279-16.074 3.772-36.628-12.304-45.909-5.291-3.051-11.071-4.506-16.772-4.506zM279.617 414.652c-8.869 0-17.855 2.258-26.089 7.013l-155.224 89.618c-25.002 14.436-33.571 46.407-19.135 71.412 14.434 25.002 46.409 33.571 71.412 19.135l155.222-89.618c25.004-14.436 33.571-46.407 19.135-71.41-9.677-16.772-27.253-26.15-45.32-26.15zM900.527 78.59c-5.069 0-10.206 1.291-14.909 4.008l-155.22 89.618c-14.288 8.248-19.183 26.52-10.935 40.808 8.25 14.29 26.522 19.185 40.806 10.935l155.222-89.62c14.288-8.248 19.183-26.518 10.935-40.806-5.535-9.583-15.577-14.943-25.899-14.943zM243.648 283.969h-179.235c-26.81 0-48.543 21.733-48.543 48.543s21.733 48.543 48.543 48.543h179.235c26.81 0 48.543-21.733 48.543-48.543s-21.733-48.543-48.543-48.543zM960.588 302.639c-0.002 0 0 0 0 0h-179.235c-16.498 0.002-29.873 13.377-29.873 29.873s13.377 29.873 29.873 29.873c0.002 0 0 0 0 0h179.235c16.498 0 29.873-13.375 29.873-29.873 0-16.496-13.377-29.873-29.873-29.873zM124.488 63.652c-15.487 0-30.548 8.036-38.848 22.412-12.374 21.431-5.031 48.838 16.4 61.208l155.224 89.62c21.431 12.38 48.838 5.033 61.21-16.4 12.374-21.433 5.031-48.838-16.4-61.21l-155.224-89.618c-7.057-4.074-14.762-6.012-22.362-6.012zM745.36 437.062c-10.324 0-20.366 5.357-25.899 14.941-8.248 14.288-3.353 32.558 10.935 40.808l155.222 89.616c14.286 8.244 32.558 3.355 40.808-10.933 8.248-14.288 3.353-32.558-10.935-40.808l-155.222-89.616c-4.705-2.717-9.84-4.008-14.909-4.008zM288.418-96.623c-6.969 0-14.030 1.776-20.5 5.509-19.645 11.343-26.376 36.464-15.035 56.109l89.618 155.222c11.341 19.647 36.462 26.378 56.109 15.037 19.645-11.343 26.376-36.466 15.035-56.109l-89.618-155.224c-7.605-13.179-21.413-20.544-35.609-20.544zM646.898 535.468c-5.067 0-10.206 1.291-14.909 4.006-14.288 8.25-19.183 26.52-10.935 40.806l89.622 155.222c8.248 14.288 26.518 19.185 40.806 10.933 14.288-8.25 19.183-26.52 10.935-40.806l-89.62-155.222c-5.535-9.579-15.575-14.939-25.899-14.939z" />
<glyph unicode="&#xea15;" glyph-name="play2" d="M512.5 845.013c-283.046 0-512.5-229.454-512.5-512.5s229.454-512.5 512.5-512.5 512.5 229.454 512.5 512.5-229.454 512.5-512.5 512.5zM512.5-83.894c-229.975 0-416.407 186.432-416.407 416.407s186.432 416.407 416.407 416.407 416.407-186.432 416.407-416.407-186.432-416.407-416.407-416.407zM384.375 556.731l384.375-224.219-384.375-224.219z" />
<glyph unicode="&#xea16;" glyph-name="pause" d="M512.5 845.013c-283.046 0-512.5-229.454-512.5-512.5s229.454-512.5 512.5-512.5 512.5 229.454 512.5 512.5-229.454 512.5-512.5 512.5zM512.5-83.894c-229.975 0-416.407 186.432-416.407 416.407s186.432 416.407 416.407 416.407 416.407-186.432 416.407-416.407-186.432-416.407-416.407-416.407zM320.313 524.7h128.125v-384.375h-128.125zM576.563 524.7h128.125v-384.375h-128.125z" />
<glyph unicode="&#xea17;" glyph-name="stop" d="M512.5 845.013c-283.046 0-512.5-229.454-512.5-512.5s229.454-512.5 512.5-512.5 512.5 229.454 512.5 512.5-229.454 512.5-512.5 512.5zM512.5-83.894c-229.975 0-416.407 186.432-416.407 416.407s186.432 416.407 416.407 416.407 416.407-186.432 416.407-416.407-186.432-416.407-416.407-416.407zM320.313 524.7h384.375v-384.375h-384.375z" />
<glyph unicode="&#xea18;" glyph-name="previous" d="M512.5 845.013c-283.046 0-512.5-229.454-512.5-512.5s229.454-512.5 512.5-512.5 512.5 229.454 512.5 512.5-229.454 512.5-512.5 512.5zM512.5-83.894c-229.975 0-416.407 186.432-416.407 416.407s186.432 416.407 416.407 416.407 416.407-186.432 416.407-416.407-186.432-416.407-416.407-416.407zM448.438 332.512l256.25 192.188v-384.375zM320.313 524.7h128.125v-384.375h-128.125v384.375z" />
<glyph unicode="&#xea19;" glyph-name="next" d="M512.5 845.013c283.046 0 512.5-229.454 512.5-512.5s-229.454-512.5-512.5-512.5-512.5 229.454-512.5 512.5 229.454 512.5 512.5 512.5zM512.5-83.894c229.975 0 416.407 186.432 416.407 416.407s-186.432 416.407-416.407 416.407-416.407-186.432-416.407-416.407 186.432-416.407 416.407-416.407zM576.563 332.512l-256.25 192.188v-384.375zM704.688 524.7h-128.125v-384.375h128.125v384.375z" />
<glyph unicode="&#xea1a;" glyph-name="backward" d="M512.5-179.988c283.046 0 512.5 229.454 512.5 512.5s-229.454 512.5-512.5 512.5-512.5-229.454-512.5-512.5 229.454-512.5 512.5-512.5zM512.5 748.919c229.975 0 416.407-186.432 416.407-416.407s-186.432-416.407-416.407-416.407-416.407 186.432-416.407 416.407 186.432 416.407 416.407 416.407zM704.688 172.356l-224.219 160.156 224.219 160.156zM448.438 172.356l-224.219 160.156 224.219 160.156z" />
<glyph unicode="&#xea1b;" glyph-name="forward2" d="M512.5 845.013c-283.046 0-512.5-229.454-512.5-512.5s229.454-512.5 512.5-512.5 512.5 229.454 512.5 512.5-229.454 512.5-512.5 512.5zM512.5-83.894c-229.975 0-416.407 186.432-416.407 416.407s186.432 416.407 416.407 416.407 416.407-186.432 416.407-416.407-186.432-416.407-416.407-416.407zM320.313 492.669l224.219-160.156-224.219-160.156zM576.563 492.669l224.219-160.156-224.219-160.156z" />
<glyph unicode="&#xea1c;" glyph-name="play3" d="M192.188 716.888l640.626-384.375-640.626-384.375z" />
<glyph unicode="&#xea1d;" glyph-name="pause2" d="M128.125 716.888h320.313v-768.751h-320.313zM576.563 716.888h320.313v-768.751h-320.313z" />
<glyph unicode="&#xea1e;" glyph-name="stop2" d="M128.125 716.888h768.751v-768.751h-768.751z" />
<glyph unicode="&#xea1f;" glyph-name="backward2" d="M576.563 684.856v-320.313l320.313 320.313v-704.688l-320.313 320.313v-320.313l-352.344 352.344z" />
<glyph unicode="&#xea20;" glyph-name="forward3" d="M512.5-19.832v320.313l-320.313-320.313v704.688l320.313-320.313v320.313l352.344-352.344z" />
<glyph unicode="&#xea21;" glyph-name="first" d="M128.125-51.863v768.751h128.125v-352.344l320.313 320.313v-320.313l320.313 320.313v-704.688l-320.313 320.313v-320.313l-320.313 320.313v-352.344z" />
<glyph unicode="&#xea22;" glyph-name="last" d="M896.876 716.888v-768.751h-128.125v352.344l-320.313-320.313v320.313l-320.313-320.313v704.688l320.313-320.313v320.313l320.313-320.313v352.344z" />
<glyph unicode="&#xea23;" glyph-name="previous2" d="M256.25-51.863v768.751h128.125v-352.344l320.313 320.313v-704.688l-320.313 320.313v-352.344z" />
<glyph unicode="&#xea24;" glyph-name="next2" d="M768.751 716.888v-768.751h-128.125v352.344l-320.313-320.313v704.688l320.313-320.313v352.344z" />
<glyph unicode="&#xea25;" glyph-name="eject" d="M0 76.262h1025.001v-128.125h-1025.001zM512.5 716.888l512.5-512.5h-1025.001z" />
<glyph unicode="&#xea26;" glyph-name="volume-high" horiz-adv-x="1089" d="M890.91-77.929c-12.298 0-24.59 4.691-33.975 14.070-18.762 18.764-18.762 49.184 0 67.948 87.724 87.728 136.037 204.36 136.037 328.421 0 124.059-48.313 240.693-136.037 328.419-18.762 18.764-18.762 49.186 0 67.948s49.186 18.762 67.948 0c105.873-105.875 164.182-246.641 164.182-396.367s-58.309-290.492-164.182-396.367c-9.381-9.381-21.677-14.072-33.973-14.072zM720.233 12.67c-12.298 0-24.59 4.691-33.975 14.070-18.762 18.762-18.762 49.184 0 67.948 131.134 131.134 131.134 344.506 0 475.64-18.762 18.764-18.762 49.186 0 67.948 18.762 18.76 49.186 18.762 67.948 0 81.674-81.67 126.654-190.26 126.654-305.765 0-115.503-44.98-224.095-126.654-305.769-9.381-9.383-21.677-14.074-33.973-14.074v0zM549.557 103.268c-12.298 0-24.592 4.691-33.975 14.072-18.764 18.764-18.764 49.182 0 67.946 81.179 81.179 81.179 213.266 0 294.444-18.764 18.764-18.764 49.186 0 67.948s49.184 18.762 67.948 0c118.646-118.646 118.646-311.696 0-430.342-9.381-9.377-21.677-14.068-33.973-14.068zM416.413-115.926c-8.336 0-16.528 3.253-22.656 9.383l-246.867 246.867h-114.858c-17.689 0-32.031 14.34-32.031 32.031v320.313c0 17.689 14.342 32.031 32.031 32.031h114.858l246.867 246.869c9.163 9.163 22.938 11.902 34.908 6.943 11.97-4.957 19.773-16.638 19.773-29.593v-832.813c0-12.957-7.804-24.636-19.773-29.593-3.962-1.642-8.126-2.438-12.252-2.438z" />
<glyph unicode="&#xea27;" glyph-name="volume-medium" d="M720.233 12.67c-12.298 0-24.59 4.691-33.975 14.070-18.762 18.762-18.762 49.184 0 67.948 131.134 131.134 131.134 344.506 0 475.64-18.762 18.764-18.762 49.186 0 67.948 18.762 18.76 49.186 18.762 67.948 0 81.674-81.67 126.654-190.26 126.654-305.765 0-115.503-44.98-224.095-126.654-305.769-9.381-9.383-21.677-14.074-33.973-14.074v0zM549.557 103.268c-12.298 0-24.59 4.691-33.975 14.072-18.764 18.764-18.764 49.182 0 67.946 81.179 81.179 81.179 213.266 0 294.444-18.764 18.764-18.764 49.186 0 67.948s49.184 18.762 67.948 0c118.646-118.646 118.646-311.696 0-430.342-9.381-9.377-21.677-14.068-33.973-14.068zM416.413-115.926c-8.336 0-16.528 3.253-22.656 9.383l-246.867 246.867h-114.858c-17.689 0-32.031 14.34-32.031 32.031v320.313c0 17.689 14.342 32.031 32.031 32.031h114.858l246.867 246.869c9.163 9.163 22.938 11.902 34.908 6.943 11.97-4.957 19.773-16.638 19.773-29.593v-832.813c0-12.957-7.804-24.636-19.773-29.593-3.962-1.642-8.126-2.438-12.252-2.438z" />
<glyph unicode="&#xea28;" glyph-name="volume-low" d="M549.557 103.268c-12.298 0-24.59 4.691-33.975 14.072-18.764 18.764-18.764 49.182 0 67.946 81.179 81.179 81.179 213.266 0 294.444-18.764 18.764-18.764 49.186 0 67.948s49.184 18.762 67.948 0c118.646-118.646 118.646-311.696 0-430.342-9.381-9.377-21.677-14.068-33.973-14.068zM416.413-115.926c-8.336 0-16.528 3.253-22.656 9.383l-246.867 246.867h-114.858c-17.689 0-32.031 14.34-32.031 32.031v320.313c0 17.689 14.342 32.031 32.031 32.031h114.858l246.867 246.869c9.163 9.163 22.938 11.902 34.908 6.943 11.97-4.957 19.773-16.638 19.773-29.593v-832.813c0-12.957-7.804-24.636-19.773-29.593-3.962-1.642-8.126-2.438-12.252-2.438z" />
<glyph unicode="&#xea29;" glyph-name="volume-mute" d="M416.413-115.926c-8.336 0-16.528 3.253-22.656 9.383l-246.867 246.867h-114.858c-17.689 0-32.031 14.34-32.031 32.031v320.313c0 17.689 14.342 32.031 32.031 32.031h114.858l246.867 246.869c9.163 9.163 22.938 11.902 34.908 6.943 11.97-4.957 19.773-16.638 19.773-29.593v-832.813c0-12.957-7.804-24.636-19.773-29.593-3.962-1.642-8.126-2.438-12.252-2.438z" />
<glyph unicode="&#xea2a;" glyph-name="volume-mute2" d="M960.938 225.259v-84.935h-84.935l-107.253 107.253-107.253-107.253h-84.935v84.935l107.253 107.253-107.253 107.253v84.935h84.935l107.253-107.253 107.253 107.253h84.935v-84.935l-107.253-107.253 107.253-107.253zM416.413-115.926c-8.336 0-16.528 3.253-22.656 9.383l-246.867 246.867h-114.858c-17.689 0-32.031 14.34-32.031 32.031v320.313c0 17.689 14.342 32.031 32.031 32.031h114.858l246.867 246.869c9.163 9.163 22.938 11.902 34.908 6.943 11.97-4.957 19.773-16.638 19.773-29.593v-832.813c0-12.957-7.804-24.636-19.773-29.593-3.962-1.642-8.126-2.438-12.252-2.438z" />
<glyph unicode="&#xea2b;" glyph-name="volume-increase" d="M1025.001 268.45h-192.188v-192.188h-128.125v192.188h-192.188v128.125h192.188v192.188h128.125v-192.188h192.188v-128.125zM416.413-115.926c-8.336 0-16.528 3.253-22.656 9.383l-246.867 246.867h-114.858c-17.689 0-32.031 14.34-32.031 32.031v320.313c0 17.689 14.342 32.031 32.031 32.031h114.858l246.867 246.869c9.163 9.163 22.938 11.902 34.908 6.943 11.97-4.957 19.773-16.638 19.773-29.593v-832.813c0-12.957-7.804-24.636-19.773-29.593-3.962-1.642-8.126-2.438-12.252-2.438z" />
<glyph unicode="&#xea2c;" glyph-name="volume-decrease" d="M512.5 396.575h512.5v-128.125h-512.5v128.125zM416.413-115.926c-8.336 0-16.528 3.253-22.656 9.383l-246.867 246.867h-114.858c-17.689 0-32.031 14.34-32.031 32.031v320.313c0 17.689 14.342 32.031 32.031 32.031h114.858l246.867 246.869c9.163 9.163 22.938 11.902 34.908 6.943 11.97-4.957 19.773-16.638 19.773-29.593v-832.813c0-12.957-7.804-24.636-19.773-29.593-3.962-1.642-8.126-2.438-12.252-2.438z" />
<glyph unicode="&#xea2d;" glyph-name="loop" d="M128.125 524.7h640.626v-192.188l256.25 256.25-256.25 256.25v-192.188h-768.751v-384.375h128.125zM896.876 140.325h-640.626v192.188l-256.25-256.25 256.25-256.25v192.188h768.751v384.375h-128.125z" />
<glyph unicode="&#xea2e;" glyph-name="loop2" d="M890.55 678.53c-93.7 102.316-228.377 166.483-378.049 166.483-283.046 0-512.5-229.454-512.5-512.5h96.094c0 229.975 186.432 416.407 416.407 416.407 123.14 0 233.77-53.47 309.999-138.441l-149.842-149.84h352.344v352.344l-134.451-134.451zM928.907 332.512c0-229.975-186.432-416.407-416.407-416.407-123.14 0-233.77 53.47-309.997 138.441l149.84 149.84h-352.344v-352.344l134.451 134.451c93.7-102.316 228.377-166.483 378.049-166.483 283.046 0 512.5 229.454 512.5 512.5h-96.094z" />
<glyph unicode="&#xea2f;" glyph-name="infinite" d="M784.754 92.266c-64.167 0-124.494 24.984-169.866 70.357l-102.388 102.382-102.376-102.37c-45.376-45.38-105.703-70.369-169.872-70.369-64.181 0-124.512 24.988-169.888 70.369-45.376 45.378-70.365 105.707-70.365 169.878s24.988 124.502 70.365 169.88c45.378 45.376 105.711 70.365 169.88 70.365 64.171 0 124.502-24.988 169.878-70.365l102.378-102.376 102.376 102.376c45.376 45.376 105.707 70.367 169.878 70.367 64.175 0 124.506-24.99 169.876-70.367 45.382-45.378 70.371-105.709 70.371-169.88 0-64.175-24.988-124.504-70.369-169.876-45.37-45.38-105.701-70.371-169.878-70.371zM682.386 230.124c27.349-27.337 63.702-42.395 102.368-42.393 38.672 0 75.031 15.059 102.376 42.403 27.343 27.349 42.405 63.706 42.405 102.378s-15.061 75.029-42.405 102.374c-27.347 27.345-63.702 42.405-102.376 42.405-38.67 0-75.029-15.059-102.378-42.405l-102.368-102.374 102.378-102.388zM240.247 477.292c-38.672 0-75.029-15.059-102.374-42.405-27.347-27.345-42.405-63.702-42.405-102.374 0-38.67 15.059-75.027 42.405-102.376 27.347-27.343 63.704-42.405 102.374-42.405 38.672 0 75.029 15.059 102.372 42.403l102.376 102.378-102.376 102.374c-27.345 27.347-63.702 42.407-102.372 42.405v0z" />
<glyph unicode="&#xea30;" glyph-name="shuffle" d="M768.751 140.325h-101.589l-160.156 160.156 160.156 160.156h101.589v-160.156l224.219 224.219-224.219 224.219v-160.156h-128.125c-16.991 0-33.285-6.751-45.298-18.764l-178.921-178.919-178.921 178.921c-12.012 12.012-28.308 18.762-45.298 18.762h-192.188v-128.125h165.652l160.156-160.156-160.156-160.156h-165.652v-128.125h192.188c16.991 0 33.285 6.749 45.298 18.764l178.921 178.919 178.921-178.919c12.014-12.016 28.308-18.764 45.298-18.764h128.125v-160.156l224.219 224.219-224.219 224.219v-160.156z" />
<glyph unicode="&#xea31;" glyph-name="arrow-up-left" d="M0 108.293l256.25 256.25 544.532-544.532 224.219 224.219-544.532 544.532 256.248 256.25h-736.717v-736.719z" />
<glyph unicode="&#xea32;" glyph-name="arrow-up" d="M512.5 812.981l-480.469-480.469h288.282v-512.5h384.375v512.5h288.282z" />
<glyph unicode="&#xea33;" glyph-name="arrow-up-right" d="M288.282 845.013l256.25-256.25-544.532-544.532 224.219-224.219 544.532 544.532 256.25-256.248v736.717h-736.719z" />
<glyph unicode="&#xea34;" glyph-name="arrow-right" d="M992.97 332.512l-480.469 480.469v-288.282h-512.5v-384.375h512.5v-288.282z" />
<glyph unicode="&#xea35;" glyph-name="arrow-down-right" d="M1025.001 556.731l-256.25-256.25-544.532 544.532-224.219-224.219 544.532-544.532-256.248-256.25h736.717v736.719z" />
<glyph unicode="&#xea36;" glyph-name="arrow-down" d="M512.5-147.957l480.469 480.469h-288.282v512.5h-384.375v-512.5h-288.282z" />
<glyph unicode="&#xea37;" glyph-name="arrow-down-left" d="M736.719-179.988l-256.25 256.25 544.532 544.532-224.219 224.219-544.532-544.532-256.25 256.248v-736.717h736.719z" />
<glyph unicode="&#xea38;" glyph-name="arrow-left" d="M32.031 332.512l480.469-480.469v288.282h512.5v384.375h-512.5v288.282z" />
<glyph unicode="&#xea39;" glyph-name="arrow-up-left2" d="M878.112 57.498l-531.263 531.265h229.714c35.381 0 64.063 28.682 64.063 64.063s-28.682 64.063-64.063 64.063h-384.375c-25.911 0-49.27-15.607-59.186-39.547-3.285-7.932-4.845-16.258-4.843-24.516h-0.034v-384.375c0-35.381 28.682-64.063 64.063-64.063s64.063 28.682 64.063 64.063v229.714l531.265-531.263c12.508-12.51 28.904-18.764 45.298-18.764s32.79 6.254 45.298 18.764c25.018 25.016 25.018 65.58 0 90.596z" />
<glyph unicode="&#xea3a;" glyph-name="arrow-up2" d="M878.112 441.873l-320.313 320.313c-25.016 25.018-65.578 25.018-90.596 0l-320.313-320.313c-25.018-25.018-25.018-65.58 0-90.598 25.018-25.020 65.58-25.020 90.598 0l210.95 210.952v-614.090c0-35.381 28.682-64.063 64.063-64.063s64.063 28.682 64.063 64.063v614.090l210.952-210.952c12.508-12.508 28.904-18.762 45.298-18.762s32.79 6.254 45.298 18.764c25.018 25.018 25.018 65.578 0 90.596z" />
<glyph unicode="&#xea3b;" glyph-name="arrow-up-right2" d="M237.486-33.099l531.265 531.263v-229.714c0-35.381 28.682-64.063 64.063-64.063s64.063 28.682 64.063 64.063v384.375c0 25.909-15.609 49.27-39.547 59.184-7.932 3.287-16.258 4.845-24.516 4.843v0.036h-384.375c-35.381 0-64.063-28.682-64.063-64.063 0-35.383 28.682-64.063 64.063-64.063h229.714l-531.263-531.265c-12.51-12.508-18.764-28.904-18.764-45.298s6.254-32.79 18.764-45.298c25.016-25.018 65.58-25.018 90.596 0z" />
<glyph unicode="&#xea3c;" glyph-name="arrow-right2" d="M621.861-33.099l320.313 320.313c25.018 25.016 25.018 65.58 0 90.598l-320.313 320.313c-25.018 25.016-65.58 25.016-90.598 0-25.018-25.018-25.018-65.58 0-90.598l210.952-210.952h-614.090c-35.381 0-64.063-28.682-64.063-64.063s28.682-64.063 64.063-64.063h614.090l-210.952-210.952c-12.508-12.508-18.762-28.904-18.762-45.298s6.254-32.79 18.762-45.298c25.018-25.018 65.58-25.018 90.598 0z" />
<glyph unicode="&#xea3d;" glyph-name="arrow-down-right2" d="M146.889 607.527l531.261-531.265h-229.712c-35.381 0-64.063-28.682-64.063-64.063s28.682-64.063 64.063-64.063h384.375c25.909 0 49.27 15.609 59.184 39.547 3.287 7.932 4.845 16.258 4.843 24.516h0.036v384.375c0 35.381-28.682 64.063-64.063 64.063-35.383 0-64.063-28.682-64.063-64.063v-229.714l-531.265 531.263c-12.508 12.51-28.902 18.764-45.298 18.764s-32.79-6.254-45.298-18.764c-25.018-25.016-25.018-65.58 0-90.596z" />
<glyph unicode="&#xea3e;" glyph-name="arrow-down2" d="M878.112 223.151l-320.313-320.313c-25.016-25.018-65.578-25.018-90.596 0l-320.313 320.313c-25.018 25.018-25.018 65.58 0 90.598 25.018 25.020 65.58 25.020 90.598 0l210.95-210.952v614.090c0 35.381 28.682 64.063 64.063 64.063s64.063-28.682 64.063-64.063v-614.090l210.952 210.952c12.508 12.508 28.904 18.762 45.298 18.762s32.79-6.254 45.298-18.764c25.018-25.018 25.018-65.578 0-90.596z" />
<glyph unicode="&#xea3f;" glyph-name="arrow-down-left2" d="M787.513 698.125l-531.263-531.263v229.714c0 35.381-28.682 64.063-64.063 64.063s-64.063-28.682-64.063-64.063v-384.377c0-25.911 15.607-49.27 39.547-59.186 7.932-3.285 16.258-4.845 24.516-4.841v-0.036l384.375 0.002c35.379 0 64.063 28.682 64.063 64.061 0 35.383-28.684 64.063-64.063 64.063h-229.714l531.263 531.265c12.508 12.508 18.764 28.904 18.764 45.3 0 16.392-6.256 32.79-18.764 45.298-25.016 25.016-65.582 25.016-90.598 0v0z" />
<glyph unicode="&#xea40;" glyph-name="arrow-left2" d="M403.14-33.099l-320.313 320.313c-25.018 25.016-25.018 65.58 0 90.598l320.313 320.313c25.018 25.016 65.58 25.016 90.598 0 25.018-25.018 25.018-65.58 0-90.598l-210.952-210.952h614.090c35.381 0 64.063-28.682 64.063-64.063s-28.682-64.063-64.063-64.063h-614.090l210.952-210.952c12.508-12.508 18.762-28.904 18.762-45.298s-6.254-32.79-18.762-45.298c-25.018-25.018-65.58-25.018-90.598 0z" />
<glyph unicode="&#xea41;" glyph-name="circle-up" d="M0 332.512c0-283.046 229.454-512.5 512.5-512.5s512.5 229.454 512.5 512.5-229.454 512.5-512.5 512.5-512.5-229.454-512.5-512.5zM928.907 332.512c0-229.975-186.432-416.407-416.407-416.407s-416.407 186.432-416.407 416.407 186.432 416.407 416.407 416.407 416.407-186.432 416.407-416.407zM707.435 175.102l90.6 90.6-285.535 285.533-285.533-285.535 90.596-90.596 194.936 194.934z" />
<glyph unicode="&#xea42;" glyph-name="circle-right" d="M512.5 845.013c-283.046 0-512.5-229.454-512.5-512.5s229.454-512.5 512.5-512.5 512.5 229.454 512.5 512.5-229.454 512.5-512.5 512.5zM512.5-83.894c-229.975 0-416.407 186.432-416.407 416.407s186.432 416.407 416.407 416.407 416.407-186.432 416.407-416.407-186.432-416.407-416.407-416.407zM355.091 137.578l90.6-90.6 285.533 285.535-285.535 285.533-90.596-90.596 194.934-194.936z" />
<glyph unicode="&#xea43;" glyph-name="circle-down" d="M1025.001 332.512c0 283.046-229.454 512.5-512.5 512.5s-512.5-229.454-512.5-512.5 229.454-512.5 512.5-512.5 512.5 229.454 512.5 512.5zM96.094 332.512c0 229.975 186.432 416.407 416.407 416.407s416.407-186.432 416.407-416.407-186.432-416.407-416.407-416.407-416.407 186.432-416.407 416.407zM317.566 489.922l-90.6-90.6 285.535-285.533 285.533 285.535-90.596 90.596-194.936-194.934z" />
<glyph unicode="&#xea44;" glyph-name="circle-left" d="M512-192c282.77 0 512 229.23 512 512s-229.23 512-512 512-512-229.23-512-512 229.23-512 512-512zM512 736c229.75 0 416-186.25 416-416s-186.25-416-416-416-416 186.25-416 416 186.25 416 416 416zM669.256 514.744l-90.512 90.512-285.254-285.256 285.256-285.254 90.508 90.508-194.744 194.746z" />
<glyph unicode="&#xea77;" glyph-name="paragraph-left" d="M0 780.95h1025.001v-128.125h-1025.001zM0 588.762h640.626v-128.125h-640.626zM0 204.387h640.626v-128.125h-640.626zM0 396.575h1025.001v-128.125h-1025.001zM0 12.199h1025.001v-128.125h-1025.001z" />
<glyph unicode="&#xea78;" glyph-name="paragraph-center" d="M0 780.95h1025.001v-128.125h-1025.001zM192.188 588.762h640.626v-128.125h-640.626zM192.188 204.387h640.626v-128.125h-640.626zM0 396.575h1025.001v-128.125h-1025.001zM0 12.199h1025.001v-128.125h-1025.001z" />
<glyph unicode="&#xea79;" glyph-name="paragraph-right" d="M0 780.95h1025.001v-128.125h-1025.001zM384.375 588.762h640.626v-128.125h-640.626zM384.375 204.387h640.626v-128.125h-640.626zM0 396.575h1025.001v-128.125h-1025.001zM0 12.199h1025.001v-128.125h-1025.001z" />
<glyph unicode="&#xea7a;" glyph-name="paragraph-justify" d="M0 780.95h1025.001v-128.125h-1025.001zM0 588.762h1025.001v-128.125h-1025.001zM0 396.575h1025.001v-128.125h-1025.001zM0 204.387h1025.001v-128.125h-1025.001zM0 12.199h1025.001v-128.125h-1025.001z" />
<glyph unicode="&#xea7b;" glyph-name="indent-increase" d="M0 780.95h1025.001v-128.125h-1025.001zM384.375 588.762h640.626v-128.125h-640.626zM384.375 396.575h640.626v-128.125h-640.626zM384.375 204.387h640.626v-128.125h-640.626zM0 12.199h1025.001v-128.125h-1025.001zM0 140.325v384.375l256.25-192.188z" />
<glyph unicode="&#xea7c;" glyph-name="indent-decrease" d="M0 780.95h1025.001v-128.125h-1025.001zM384.375 588.762h640.626v-128.125h-640.626zM384.375 396.575h640.626v-128.125h-640.626zM384.375 204.387h640.626v-128.125h-640.626zM0 12.199h1025.001v-128.125h-1025.001zM256.25 524.7v-384.375l-256.25 192.188z" />
<glyph unicode="&#xea7d;" glyph-name="share" d="M256.25 204.387c0 0 58.882 192.188 384.375 192.188v-192.188l384.375 256.25-384.375 256.25v-192.188c-256.25 0-384.375-159.828-384.375-320.313zM704.688 76.262h-576.563v384.375h125.999c10.104 11.93 20.932 23.357 32.52 34.213 44.007 41.23 96.656 72.723 156.267 93.912h-442.911v-640.626h832.813v268.887l-128.125-85.417v-55.344z" />
<glyph unicode="&#xeab0;" glyph-name="github" d="M512.508 832.358c-283.014 0-512.508-229.442-512.508-512.498 0-226.435 146.847-418.541 350.478-486.311 25.611-4.743 35.026 11.121 35.026 24.656 0 12.216-0.48 52.593-0.697 95.417-142.587-31.006-172.673 60.469-172.673 60.469-23.305 59.234-56.904 74.989-56.904 74.989-46.497 31.809 3.513 31.154 3.513 31.154 51.45-3.614 78.553-52.818 78.553-52.818 45.717-78.347 119.893-55.694 149.15-42.6 4.592 33.118 17.869 55.734 32.538 68.531-113.841 12.955-233.504 56.906-233.504 253.279 0 55.953 20.024 101.673 52.812 137.562-5.321 12.913-22.876 65.036 4.957 135.632 0 0 43.048 13.765 140.978-52.541 40.876 11.359 84.719 17.053 128.279 17.251 43.545-0.198 87.421-5.892 128.381-17.251 97.83 66.309 140.793 52.541 140.793 52.541 27.899-70.597 10.36-122.72 5.041-135.632 32.852-35.891 52.746-81.612 52.746-137.562 0-196.846-119.895-240.185-234.019-252.871 18.382-15.906 34.758-47.092 34.758-94.905 0-68.575-0.597-123.765-0.597-140.645 0-13.641 9.231-29.623 35.206-24.59 203.521 67.842 350.184 259.88 350.184 486.243 0 283.056-229.458 512.498-512.492 512.498z" />
</font>
</defs>
</svg>
